# Blender v2.79 (sub 0) OBJ File: 'asteroid6.blend'
# www.blender.org
mtllib asteroid6.mtl
o asteroid6_Cube
v 0.947785 -0.947785 -0.947784
v 0.947784 -0.947785 0.947785
v -0.947785 -0.947785 0.947784
v -0.947784 -0.947785 -0.947785
v 0.947785 0.947785 -0.947784
v 1.759970 1.276413 1.326407
v -0.947785 0.947785 0.947784
v -0.947784 0.947785 -0.947785
v 1.076642 -1.076642 0.000000
v 0.000000 -1.076642 -1.076642
v 1.411800 0.000000 -1.411799
v -0.000000 -1.076642 1.076642
v 1.806788 0.239096 1.537859
v -1.076642 -1.076642 -0.000000
v -1.411800 0.000000 1.411799
v -1.411799 0.000000 -1.411800
v 1.737808 1.331080 0.308414
v 0.000000 1.076642 -1.076642
v -0.000000 1.076642 1.076642
v -1.076642 1.076642 -0.000000
v 0.000001 0.000000 -1.901229
v -1.901229 0.000000 -0.000000
v -0.000001 0.000000 1.901229
v 2.262960 0.239052 0.234744
v -0.000000 1.429475 0.000000
v 0.000000 -1.429475 -0.000000
v 1.040240 -1.040240 0.573643
v -0.573642 -1.040240 -1.040240
v 1.266380 0.603971 -1.266379
v -0.573643 -1.040240 1.040240
v 1.848250 0.875460 1.491334
v -1.040240 -1.040240 -0.573643
v -1.266380 0.603971 1.266379
v -1.266379 0.603971 -1.266380
v 1.875121 1.375376 0.952626
v -0.573642 1.040240 -1.040240
v -0.573643 1.040240 1.040240
v -1.040240 1.040240 -0.573643
v 1.040240 -1.040240 -0.573643
v 0.573643 -1.040240 -1.040240
v 1.266380 -0.603971 -1.266379
v 0.573643 -1.040240 1.040240
v 1.266379 -0.603971 1.266380
v -1.040240 -1.040240 0.573642
v -1.266380 -0.603971 1.266379
v -1.266379 -0.603971 -1.266380
v 1.040240 1.040240 -0.573642
v 0.573643 1.040240 -1.040240
v 1.093164 1.235855 1.289479
v -1.040241 1.040240 0.573643
v -0.789158 0.000000 -1.780662
v 0.789159 0.000000 -1.780662
v 0.000000 0.636891 -1.666208
v 0.000000 -0.636891 -1.666208
v -1.780662 0.000000 -0.789158
v -1.780662 0.000000 0.789158
v -1.666208 -0.636891 -0.000000
v -1.666208 0.636891 -0.000000
v -0.789158 0.000000 1.780662
v 0.789157 0.000000 1.780662
v -0.000000 -0.636891 1.666208
v -0.000001 0.636891 1.666208
v 2.276259 0.302890 1.021328
v 1.780662 0.000000 -0.789158
v 1.666208 -0.636891 0.000000
v 2.207580 0.900951 0.305212
v -0.000000 1.344198 0.606942
v 0.000000 1.344198 -0.606941
v 1.089210 1.516437 0.237100
v -0.606942 1.344198 0.000000
v -0.606941 -1.344198 -0.000000
v 0.606941 -1.344198 -0.000000
v 0.000000 -1.344198 -0.606942
v -0.000000 -1.344198 0.606941
v 0.595143 -1.271374 0.595143
v 0.595143 -1.271374 -0.595143
v -0.595143 -1.271374 -0.595144
v -0.595143 1.271374 -0.595143
v 0.595143 1.271374 -0.595143
v 1.212058 1.505699 0.867721
v 1.568406 0.625105 -0.717143
v 1.568406 -0.625105 -0.717143
v 1.568405 -0.625105 0.717144
v 0.717143 0.625105 1.568406
v 0.717143 -0.625105 1.568406
v -0.717144 -0.625105 1.568405
v -1.568406 0.625105 0.717143
v -1.568406 -0.625105 0.717143
v -1.568405 -0.625105 -0.717144
v 0.717144 -0.625105 -1.568405
v 0.717144 0.625105 -1.568405
v -0.717143 0.625105 -1.568405
v -0.717143 -0.625105 -1.568406
v -1.568405 0.625105 -0.717144
v -0.717144 0.625105 1.568405
v 2.271029 0.962656 1.044912
v -0.595144 1.271374 0.595143
v -0.595143 -1.271374 0.595143
vt 0.248822 0.631118
vt 0.218166 0.682380
vt 0.184598 0.644616
vt 0.194937 0.599429
vt 0.132702 0.295622
vt 0.145522 0.361241
vt 0.099424 0.363174
vt 0.080836 0.315103
vt 0.914231 0.091245
vt 0.969223 0.140097
vt 0.934118 0.177224
vt 0.881127 0.165575
vt 0.023830 0.366170
vt 0.070009 0.426971
vt 0.317243 0.419277
vt 0.285823 0.336390
vt 0.331232 0.322114
vt 0.379739 0.372110
vt 0.878349 0.654558
vt 0.803940 0.682423
vt 0.793000 0.631455
vt 0.838864 0.582360
vt 0.991386 0.572346
vt 0.949225 0.611608
vt 0.900218 0.530555
vt 0.948079 0.502928
vt 0.533899 0.817270
vt 0.598700 0.869898
vt 0.535031 0.936711
vt 0.474921 0.876141
vt 0.924490 0.816167
vt 0.840848 0.811694
vt 0.821962 0.750527
vt 0.908037 0.739026
vt 0.784090 0.533494
vt 0.839437 0.470599
vt 0.113448 0.582973
vt 0.034354 0.598527
vt 0.041762 0.518869
vt 0.122186 0.511113
vt 0.141844 0.450345
vt 0.215808 0.351246
vt 0.230993 0.445966
vt 0.155828 0.734309
vt 0.083716 0.774796
vt 0.047628 0.686204
vt 0.121402 0.659160
vt 0.256001 0.864390
vt 0.193949 0.917939
vt 0.136414 0.856867
vt 0.205137 0.807329
vt 0.874152 0.275917
vt 0.946527 0.239991
vt 0.969223 0.327283
vt 0.882628 0.356406
vt 0.690262 0.151393
vt 0.732276 0.000000
vt 0.796218 0.055119
vt 0.758595 0.182167
vt 0.512532 0.146989
vt 0.506665 0.071231
vt 0.634489 0.004441
vt 0.601283 0.140197
vt 0.601995 0.674753
vt 0.520145 0.673053
vt 0.548434 0.521071
vt 0.626863 0.514024
vt 0.066874 0.071079
vt 0.120613 0.220221
vt 0.066549 0.244786
vt 0.020645 0.109060
vt 0.258806 0.126360
vt 0.269058 0.193927
vt 0.193759 0.202487
vt 0.145864 0.071650
vt 0.278261 0.269840
vt 0.204755 0.280236
vt 0.747384 0.682051
vt 0.693667 0.667929
vt 0.702747 0.597411
vt 0.752274 0.616065
vt 0.524907 0.302595
vt 0.598278 0.309485
vt 0.598181 0.378935
vt 0.523405 0.369730
vt 0.672401 0.306251
vt 0.728741 0.289919
vt 0.733385 0.351866
vt 0.673823 0.373458
vt 0.599376 0.238387
vt 0.670664 0.240739
vt 0.717547 0.243390
vt 0.785676 0.816167
vt 0.760873 0.754246
vt 0.482657 0.237568
vt 0.528498 0.237216
vt 0.470938 0.283530
vt 0.598950 0.433702
vt 0.525566 0.424398
vt 0.329873 0.198144
vt 0.335257 0.270039
vt 0.462451 0.692544
vt 0.478644 0.562323
vt 0.521676 0.721507
vt 0.482820 0.751170
vt 0.433072 0.792583
vt 0.407519 0.730902
vt 0.047297 0.000000
vt 0.004719 0.027300
vt 0.128881 0.004981
vt 0.678015 0.703902
vt 0.693667 0.556135
vt 0.648714 0.790445
vt 0.580024 0.750713
vt 0.444748 0.174389
vt 0.429715 0.107065
vt 0.796218 0.260846
vt 0.803322 0.349928
vt 0.816762 0.148477
vt 0.298295 0.786431
vt 0.261159 0.735914
vt 0.796218 0.241117
vt 0.298295 0.888865
vt 0.245862 1.000000
vt 0.144394 0.511113
vt 0.242871 0.508552
vt 0.062223 0.480136
vt 0.207559 0.544510
vt 0.723541 0.502064
vt 0.773564 0.433702
vt 1.000000 0.789446
vt 0.984084 0.704088
vt 0.693667 0.822052
vt 0.651519 0.891105
vt 0.407519 0.231484
vt 0.407429 0.298225
vt 0.407519 0.209026
vt 0.471165 0.979971
vt 0.418002 0.917298
vt 0.337406 0.476925
vt 0.407519 0.418975
vt 0.030178 0.791376
vt 0.000000 0.714297
vt 0.903391 0.420592
vt 0.828392 0.420049
vt 0.000000 0.281209
vt 0.851867 0.063008
vt 0.904552 0.000000
vt 0.964651 0.037065
vt 0.554840 0.445953
vt 0.625585 0.433702
vt 0.267254 0.574896
vt 0.673061 0.428053
vt 0.297470 0.682797
vn -0.3849 -0.8389 0.3849
vn -0.3849 0.8389 0.3849
vn 0.6359 0.5497 0.5418
vn -0.3223 0.7856 0.5282
vn -0.5282 0.7856 -0.3223
vn -0.3223 -0.7856 -0.5282
vn -0.4747 0.3223 -0.8190
vn 0.1376 0.3378 -0.9311
vn 0.0919 -0.7966 -0.5975
vn -0.8190 -0.3223 -0.4747
vn -0.9311 -0.3378 0.1376
vn -0.5975 0.7966 0.0919
vn -0.4747 -0.3223 0.8190
vn 0.1376 -0.3378 0.9311
vn -0.1009 0.6551 0.7487
vn 0.6547 -0.6076 0.4496
vn 0.8667 -0.4421 -0.2311
vn 0.4927 0.6766 -0.5472
vn -0.2172 0.8485 0.4825
vn 0.0261 0.9723 -0.2322
vn -0.4780 0.8725 -0.1013
vn -0.4780 -0.8725 -0.1013
vn 0.1305 -0.9828 -0.1305
vn 0.1012 -0.8725 0.4780
vn 0.1305 -0.9828 0.1305
vn 0.4780 -0.8725 0.1013
vn 0.3849 -0.8389 0.3849
vn 0.1013 -0.8725 -0.4780
vn 0.3849 -0.8389 -0.3849
vn 0.4780 -0.8725 -0.1013
vn -0.3849 -0.8389 -0.3849
vn -0.1013 -0.8725 -0.4780
vn -0.1305 -0.9828 -0.1305
vn -0.1305 0.9828 -0.1305
vn -0.1012 0.8725 -0.4780
vn -0.3849 0.8389 -0.3849
vn 0.3462 0.7997 -0.4906
vn 0.3849 0.8389 -0.3849
vn 0.1013 0.8725 -0.4780
vn 0.0220 0.9045 0.4258
vn 0.2417 0.9675 -0.0748
vn -0.1260 0.9880 0.0892
vn 0.8282 0.2289 -0.5115
vn 0.8190 0.3223 -0.4747
vn 0.5282 0.7856 -0.3223
vn 0.5975 -0.7966 -0.0919
vn 0.5282 -0.7856 -0.3223
vn 0.8190 -0.3223 -0.4747
vn 0.5282 -0.7856 0.3223
vn 0.5975 -0.7966 0.0919
vn 0.7973 -0.5990 0.0749
vn 0.1376 0.3378 0.9311
vn 0.0990 0.2023 0.9743
vn -0.0464 0.4124 0.9098
vn 0.0919 -0.7966 0.5975
vn 0.3223 -0.7856 0.5282
vn 0.3595 -0.4239 0.8313
vn -0.3223 -0.7856 0.5282
vn -0.0919 -0.7966 0.5975
vn -0.1376 -0.3378 0.9311
vn -0.9311 0.3378 0.1376
vn -0.8190 0.3223 0.4747
vn -0.5282 0.7856 0.3223
vn -0.5975 -0.7966 0.0919
vn -0.5282 -0.7856 0.3223
vn -0.8190 -0.3223 0.4747
vn -0.5282 -0.7856 -0.3223
vn -0.5975 -0.7966 -0.0919
vn -0.9311 -0.3378 -0.1376
vn 0.1376 -0.3378 -0.9311
vn 0.4747 -0.3223 -0.8190
vn 0.3223 -0.7856 -0.5282
vn 0.0919 0.7966 -0.5975
vn 0.3223 0.7856 -0.5282
vn 0.4747 0.3223 -0.8190
vn -0.3223 0.7856 -0.5282
vn -0.0919 0.7966 -0.5975
vn -0.1376 0.3378 -0.9311
vn -0.4747 -0.3223 -0.8190
vn -0.1376 -0.3378 -0.9311
vn -0.0919 -0.7966 -0.5975
vn -0.8190 0.3223 -0.4747
vn -0.9311 0.3378 -0.1376
vn -0.5975 0.7966 -0.0919
vn -0.4747 0.3223 0.8190
vn -0.1376 0.3378 0.9311
vn -0.0919 0.7966 0.5975
vn 0.7342 -0.0085 0.6789
vn 0.9973 0.0496 -0.0542
vn 0.6973 0.6999 -0.1548
vn -0.1013 0.8725 0.4780
vn -0.1305 0.9828 0.1305
vn -0.4780 0.8725 0.1013
vn -0.4780 -0.8725 0.1013
vn -0.1305 -0.9828 0.1305
vn -0.1013 -0.8725 0.4780
usemtl Material
s off
f 98/1/1 30/2/1 3/3/1 44/4/1
f 97/5/2 50/6/2 7/7/2 37/8/2
f 96/9/3 35/10/3 6/11/3 31/12/3
f 95/13/4 37/8/4 7/7/4 33/14/4
f 94/15/5 38/16/5 8/17/5 34/18/5
f 93/19/6 28/20/6 4/21/6 46/22/6
f 92/23/7 51/24/7 16/25/7 34/26/7
f 91/27/8 52/28/8 21/29/8 53/30/8
f 90/31/9 40/32/9 10/33/9 54/34/9
f 89/35/10 55/36/10 16/25/10 46/22/10
f 88/37/11 56/38/11 22/39/11 57/40/11
f 87/41/12 50/6/12 20/42/12 58/43/12
f 86/44/13 59/45/13 15/46/13 45/47/13
f 85/48/14 60/49/14 23/50/14 61/51/14
f 84/52/15 49/53/15 19/54/15 62/55/15
f 83/56/16 63/57/16 13/58/16 43/59/16
f 82/60/17 64/61/17 24/62/17 65/63/17
f 81/64/18 47/65/18 17/66/18 66/67/18
f 80/68/19 67/69/19 19/70/19 49/71/19
f 79/72/20 68/73/20 25/74/20 69/75/20
f 78/76/21 38/16/21 20/42/21 70/77/21
f 77/78/22 71/79/22 14/80/22 32/81/22
f 76/82/23 72/83/23 26/84/23 73/85/23
f 75/86/24 42/87/24 12/88/24 74/89/24
f 72/83/25 75/86/25 74/89/25 26/84/25
f 9/90/26 27/91/26 75/86/26 72/83/26
f 27/91/27 2/92/27 42/87/27 75/86/27
f 40/32/28 76/93/28 73/94/28 10/33/28
f 1/95/29 39/96/29 76/82/29 40/97/29
f 39/96/30 9/90/30 72/83/30 76/82/30
f 28/20/31 77/78/31 32/81/31 4/21/31
f 10/33/32 73/94/32 77/78/32 28/20/32
f 73/85/33 26/84/33 71/98/33 77/99/33
f 68/73/34 78/76/34 70/77/34 25/74/34
f 18/100/35 36/101/35 78/76/35 68/73/35
f 36/101/36 8/17/36 38/16/36 78/76/36
f 47/65/37 79/102/37 69/103/37 17/66/37
f 5/104/38 48/105/38 79/102/38 47/65/38
f 48/105/39 18/106/39 68/107/39 79/102/39
f 35/108/40 80/68/40 49/71/40 6/109/40
f 17/110/41 69/75/41 80/68/41 35/108/41
f 69/75/42 25/74/42 67/69/42 80/68/42
f 64/111/43 81/64/43 66/67/43 24/112/43
f 11/113/44 29/114/44 81/64/44 64/111/44
f 29/114/45 5/104/45 47/65/45 81/64/45
f 39/96/46 82/60/46 65/63/46 9/90/46
f 1/95/47 41/115/47 82/60/47 39/96/47
f 41/115/48 11/116/48 64/61/48 82/60/48
f 27/91/49 83/56/49 43/59/49 2/92/49
f 9/90/50 65/63/50 83/56/50 27/91/50
f 65/63/51 24/62/51 63/57/51 83/56/51
f 60/117/52 84/52/52 62/55/52 23/118/52
f 13/119/53 31/12/53 84/52/53 60/117/53
f 31/12/54 6/11/54 49/53/54 84/52/54
f 42/120/55 85/48/55 61/51/55 12/121/55
f 2/92/56 43/59/56 85/122/56 42/87/56
f 43/123/57 13/124/57 60/49/57 85/48/57
f 30/2/58 86/44/58 45/47/58 3/3/58
f 12/121/59 61/51/59 86/44/59 30/2/59
f 61/51/60 23/50/60 59/45/60 86/44/60
f 56/125/61 87/41/61 58/43/61 22/126/61
f 15/127/62 33/14/62 87/41/62 56/125/62
f 33/14/63 7/7/63 50/6/63 87/41/63
f 44/4/64 88/37/64 57/40/64 14/128/64
f 3/3/65 45/47/65 88/37/65 44/4/65
f 45/47/66 15/46/66 56/38/66 88/37/66
f 32/81/67 89/35/67 46/22/67 4/21/67
f 14/80/68 57/129/68 89/35/68 32/81/68
f 57/129/69 22/130/69 55/36/69 89/35/69
f 52/131/70 90/31/70 54/34/70 21/132/70
f 11/113/71 41/133/71 90/134/71 52/28/71
f 41/115/72 1/95/72 40/97/72 90/135/72
f 48/105/73 91/27/73 53/30/73 18/106/73
f 5/104/74 29/114/74 91/27/74 48/105/74
f 29/114/75 11/113/75 52/28/75 91/27/75
f 36/101/76 92/136/76 34/18/76 8/17/76
f 18/100/77 53/137/77 92/136/77 36/101/77
f 53/30/78 21/29/78 51/138/78 92/139/78
f 51/24/79 93/19/79 46/22/79 16/25/79
f 21/132/80 54/34/80 93/19/80 51/24/80
f 54/34/81 10/33/81 28/20/81 93/19/81
f 55/140/82 94/15/82 34/18/82 16/141/82
f 22/126/83 58/43/83 94/15/83 55/140/83
f 58/43/84 20/42/84 38/16/84 94/15/84
f 59/45/85 95/142/85 33/143/85 15/46/85
f 23/118/86 62/55/86 95/144/86 59/145/86
f 62/146/87 19/70/87 37/8/87 95/13/87
f 63/147/88 96/9/88 31/12/88 13/119/88
f 24/148/89 66/149/89 96/9/89 63/147/89
f 66/67/90 17/66/90 35/150/90 96/151/90
f 67/69/91 97/5/91 37/8/91 19/70/91
f 25/74/92 70/77/92 97/5/92 67/69/92
f 70/77/93 20/42/93 50/6/93 97/5/93
f 71/152/94 98/1/94 44/4/94 14/128/94
f 26/84/95 74/89/95 98/153/95 71/98/95
f 74/154/96 12/121/96 30/2/96 98/1/96
