# Blender v2.79 (sub 0) OBJ File: 'asteroid1.blend'
# www.blender.org
mtllib asteroid1.mtl
o asteroid1_Cube
v 0.501009 -0.501009 -0.501009
v 0.501009 -0.501009 0.501009
v -0.464808 -0.444236 0.730214
v -0.501009 -0.501009 -0.501009
v 0.501009 0.501009 -0.501009
v 0.706349 0.640541 0.501009
v -0.501009 0.501009 0.501009
v -0.501009 0.501009 -0.501009
v 0.569124 -0.569124 0.000000
v 0.000000 -0.569124 -0.569124
v 0.569124 0.000000 -0.569124
v -0.000000 -0.569124 0.569124
v 0.774464 0.139532 0.569124
v -0.569124 -0.569124 -0.000000
v -0.569124 0.000000 0.569124
v -0.569124 0.000000 -0.569124
v 0.774465 0.708656 0.000000
v 0.000000 0.569124 -0.569124
v 0.241541 0.765429 0.798330
v -0.569124 0.569124 -0.000000
v 0.000000 0.000000 -0.755635
v -0.755635 0.000000 -0.000000
v 0.241541 0.196305 0.984841
v 0.960976 0.139532 0.000000
v 0.205340 0.895167 0.000000
v 0.000000 -0.755635 -0.000000
v 0.549882 -0.549882 0.303234
v -0.303233 -0.549882 -0.549882
v 0.549882 0.303234 -0.549882
v -0.267033 -0.493109 0.779087
v 0.755222 0.442766 0.549882
v -0.549882 -0.549882 -0.303234
v -0.549882 0.303234 0.549882
v -0.549882 0.303234 -0.549882
v 0.755222 0.689414 0.303234
v -0.303233 0.549882 -0.549882
v -0.267033 0.606655 0.779087
v -0.549882 0.549882 -0.303234
v 0.549882 -0.549882 -0.303233
v 0.303234 -0.549882 -0.549882
v 0.549882 -0.303234 -0.549882
v 0.303233 -0.549882 0.549882
v 0.549882 -0.303234 0.549882
v -0.549882 -0.549882 0.303233
v -0.549882 -0.303234 0.549882
v -0.549882 -0.303234 -0.549882
v 0.549882 0.549882 -0.303233
v 0.303234 0.549882 -0.549882
v 0.544774 0.746187 0.779088
v -0.549882 0.549882 0.303233
v -0.320835 0.000000 -0.710557
v 0.320836 0.000000 -0.710557
v 0.000000 0.320836 -0.710557
v 0.000000 -0.320836 -0.710557
v -0.710557 0.000000 -0.320836
v -0.710557 0.000000 0.320835
v -0.710557 -0.320836 -0.000000
v -0.710557 0.320836 -0.000000
v -0.284635 0.056773 0.939762
v 0.562376 0.196305 0.939763
v 0.036200 -0.264063 0.939763
v 0.241541 0.517140 0.939763
v 0.915897 0.139532 0.320836
v 0.710557 0.000000 -0.320835
v 0.710557 -0.320836 0.000000
v 0.915897 0.460368 0.000000
v 0.205340 0.850089 0.320836
v 0.205341 0.850089 -0.320835
v 0.526176 0.850089 0.000000
v -0.320836 0.710557 0.000000
v -0.320835 -0.710557 -0.000000
v 0.320836 -0.710557 -0.000000
v 0.000000 -0.710557 -0.320836
v -0.000000 -0.710557 0.320835
v 0.314599 -0.672061 0.314599
v 0.314599 -0.672061 -0.314599
v -0.314599 -0.672061 -0.314599
v -0.314599 0.672061 -0.314599
v 0.314599 0.672061 -0.314599
v 0.519939 0.811593 0.314599
v 0.672061 0.314599 -0.314599
v 0.877402 -0.175067 -0.314599
v 0.672061 -0.314599 0.314599
v 0.556140 0.510904 0.901267
v 0.350799 -0.257826 0.901267
v -0.278399 -0.257826 0.901267
v -0.672061 0.314599 0.314599
v -0.672061 -0.314599 0.314599
v -0.672061 -0.314599 -0.314599
v 0.314599 -0.314599 -0.672061
v 0.314599 0.314599 -0.672061
v -0.314599 0.314599 -0.672061
v -0.314599 -0.314599 -0.672061
v -0.672061 0.314599 -0.314599
v -0.278399 0.371372 0.901267
v 0.877402 0.454131 0.314599
v -0.314599 0.672061 0.314599
v -0.314599 -0.672061 0.314599
vt 0.508371 0.070964
vt 0.397581 0.092357
vt 0.413867 0.034780
vt 0.518448 0.005472
vt 0.263366 0.773544
vt 0.330003 0.777222
vt 0.317916 0.838808
vt 0.247857 0.917500
vt 0.455558 0.734561
vt 0.394857 0.720461
vt 0.409285 0.658941
vt 0.460539 0.653071
vt 0.931452 0.533668
vt 0.991257 0.562274
vt 0.976327 0.669192
vt 0.928080 0.664740
vt 0.942323 0.928351
vt 0.996557 0.907023
vt 0.983636 0.960948
vt 0.936102 0.984957
vt 0.076444 0.063972
vt 0.021263 0.065951
vt 0.042180 0.010594
vt 0.091830 0.000000
vt 0.234398 0.085705
vt 0.154290 0.070853
vt 0.167954 0.003613
vt 0.244078 0.020947
vt 0.212338 0.275677
vt 0.131792 0.264591
vt 0.141460 0.165260
vt 0.223584 0.178803
vt 0.054383 0.253944
vt 0.000000 0.249060
vt 0.005126 0.155790
vt 0.062498 0.156640
vt 0.783514 0.943957
vt 0.864561 0.941808
vt 0.860505 1.000000
vt 0.783030 1.000000
vt 0.778925 0.760754
vt 0.859881 0.754974
vt 0.864091 0.852886
vt 0.781242 0.856349
vt 0.937734 0.745148
vt 0.992133 0.730439
vt 1.000000 0.820172
vt 0.943200 0.840433
vt 0.772643 0.549275
vt 0.852025 0.530885
vt 0.852202 0.668577
vt 0.775008 0.679783
vt 0.641956 0.511146
vt 0.527018 0.521515
vt 0.526365 0.469511
vt 0.642849 0.461833
vt 0.051056 0.946859
vt 0.039074 0.901914
vt 0.111540 0.911328
vt 0.126889 0.962755
vt 0.651354 0.717231
vt 0.536186 0.740684
vt 0.538332 0.653040
vt 0.650524 0.635511
vt 0.609706 0.919205
vt 0.564295 0.898800
vt 0.532927 0.837103
vt 0.649733 0.811140
vt 0.212338 0.403129
vt 0.276085 0.374987
vt 0.318702 0.464842
vt 0.251412 0.498968
vt 0.049019 0.757648
vt 0.123115 0.762603
vt 0.121023 0.571953
vt 0.134996 0.565764
vt 0.125793 0.662724
vt 0.050533 0.659810
vt 0.275017 0.580531
vt 0.341232 0.591182
vt 0.338934 0.683841
vt 0.267932 0.675876
vt 0.667331 0.073777
vt 0.586399 0.068539
vt 0.594496 0.000000
vt 0.671666 0.008183
vt 0.660919 0.265449
vt 0.579860 0.264011
vt 0.581356 0.164013
vt 0.664186 0.167709
vt 0.501959 0.262636
vt 0.447441 0.264253
vt 0.444913 0.170827
vt 0.502074 0.164841
vt 0.582897 0.346743
vt 0.507241 0.340492
vt 0.459697 0.327172
vt 0.725286 0.269169
vt 0.732480 0.175916
vt 0.712847 0.331651
vt 0.660459 0.343203
vt 0.731466 0.084422
vt 0.723058 0.026408
vt 0.210182 0.501497
vt 0.285433 0.512157
vt 0.336470 0.531428
vt 0.314608 0.307548
vt 0.362912 0.394761
vt 0.737718 0.028407
vt 0.778623 0.000000
vt 0.778623 0.070742
vt 0.732480 0.090918
vt 0.276085 0.287045
vt 0.290873 0.195104
vt 0.362912 0.280368
vt 0.362912 0.687234
vt 0.384670 0.559324
vt 0.000000 0.661005
vt 0.000487 0.754911
vt 0.131792 0.403545
vt 0.169289 0.501497
vt 0.128046 0.347281
vt 0.205519 0.352996
vt 0.732480 0.180718
vt 0.736282 0.116483
vt 0.773844 0.090918
vt 0.773844 0.166706
vt 0.704489 0.879729
vt 0.712707 0.796358
vt 0.732480 0.356682
vt 0.674745 0.461833
vt 0.053271 0.332049
vt 0.082212 0.448214
vt 0.710950 0.707892
vt 0.700391 0.645384
vt 0.446160 0.528476
vt 0.443865 0.479037
vt 0.369677 0.291827
vt 0.362912 0.195505
vt 0.712707 0.607847
vt 0.713677 0.589552
vt 0.734574 0.622290
vt 0.376089 0.100155
vt 0.757736 0.506852
vt 0.865084 0.461833
vt 0.714553 0.757717
vt 0.712707 0.848405
vt 0.718977 0.934302
vt 0.730727 0.985802
vt 0.007048 0.313131
vt 0.258595 0.347740
vt 0.297349 0.103936
vt 0.293727 0.045204
vt 0.946392 0.467001
vt 0.265403 0.962755
vt 0.450748 0.828344
vt 0.386775 0.808538
vn -0.3861 -0.8606 0.3322
vn -0.5320 0.8180 0.2186
vn 0.8389 0.3849 0.3849
vn -0.7798 0.3208 0.5376
vn -0.8389 0.3849 -0.3849
vn -0.3849 -0.3849 -0.8389
vn -0.4780 0.1013 -0.8725
vn 0.1305 0.1305 -0.9828
vn 0.1013 -0.4780 -0.8725
vn -0.8725 -0.1013 -0.4780
vn -0.9828 -0.1305 0.1305
vn -0.8725 0.4780 0.1012
vn -0.7829 -0.0898 0.6156
vn 0.1304 -0.1490 0.9802
vn 0.1012 0.4780 0.8725
vn 0.7904 -0.4253 0.4409
vn 0.9828 -0.1305 -0.1305
vn 0.6450 0.3674 -0.6701
vn 0.0981 0.9837 0.1504
vn 0.4222 0.8022 -0.4222
vn -0.4780 0.8725 -0.1013
vn -0.4780 -0.8725 -0.1013
vn 0.1305 -0.9828 -0.1305
vn 0.1012 -0.8725 0.4780
vn 0.1305 -0.9828 0.1305
vn 0.4780 -0.8725 0.1013
vn 0.3849 -0.8389 0.3849
vn 0.1013 -0.8725 -0.4780
vn 0.3849 -0.8389 -0.3849
vn 0.4780 -0.8725 -0.1012
vn -0.3849 -0.8389 -0.3849
vn -0.1012 -0.8725 -0.4780
vn -0.1305 -0.9828 -0.1305
vn -0.3256 0.9370 -0.1264
vn -0.2073 0.7907 -0.5760
vn -0.3849 0.8389 -0.3849
vn 0.3811 0.6717 -0.6352
vn 0.3849 0.8389 -0.3849
vn 0.3475 0.6378 -0.6874
vn 0.5763 0.8016 0.1592
vn 0.4780 0.8725 0.1013
vn 0.1305 0.9828 0.1305
vn 0.7611 0.1064 -0.6398
vn 0.8725 0.1013 -0.4780
vn 0.8389 0.3849 -0.3849
vn 0.7989 -0.6007 0.0304
vn 0.6935 -0.5095 -0.5095
vn 0.6837 0.1732 -0.7089
vn 0.8389 -0.3849 0.3849
vn 0.8725 -0.4780 0.1013
vn 0.8731 -0.4727 0.1195
vn 0.1305 0.1305 0.9828
vn 0.8721 0.0811 0.4826
vn 0.8636 0.2845 0.4162
vn 0.0906 -0.7726 0.6284
vn 0.5807 -0.5807 0.5707
vn 0.7684 -0.4056 0.4950
vn -0.6484 -0.0488 0.7597
vn 0.1204 -0.6720 0.7307
vn -0.0852 -0.0852 0.9927
vn -0.9828 0.1305 0.1305
vn -0.8725 0.1012 0.4780
vn -0.8389 0.3849 0.3849
vn -0.8725 -0.4780 0.1013
vn -0.8808 -0.3348 0.3348
vn -0.8725 -0.1013 0.4780
vn -0.8389 -0.3849 -0.3849
vn -0.8725 -0.4780 -0.1013
vn -0.9828 -0.1305 -0.1305
vn 0.1305 -0.1305 -0.9828
vn 0.4780 -0.1012 -0.8725
vn 0.3849 -0.3849 -0.8389
vn 0.1013 0.4780 -0.8725
vn 0.3849 0.3849 -0.8389
vn 0.4780 0.1013 -0.8725
vn -0.3849 0.3849 -0.8389
vn -0.1012 0.4780 -0.8725
vn -0.1305 0.1305 -0.9828
vn -0.4780 -0.1013 -0.8725
vn -0.1305 -0.1305 -0.9828
vn -0.1012 -0.4780 -0.8725
vn -0.8725 0.1013 -0.4780
vn -0.9828 0.1305 -0.1305
vn -0.8725 0.4780 -0.1013
vn -0.7966 0.0887 0.5980
vn -0.1143 0.1306 0.9848
vn -0.1885 0.4735 0.8604
vn 0.8725 0.1013 0.4780
vn 0.9828 0.1305 0.1305
vn 0.8725 0.4780 0.1013
vn -0.3103 0.9341 0.1764
vn -0.3256 0.9370 0.1264
vn -0.4780 0.8725 0.1012
vn -0.4780 -0.8725 0.1013
vn -0.1305 -0.9828 0.1305
vn -0.0351 -0.9107 0.4117
usemtl Material
s off
f 98/1/1 30/2/1 3/3/1 44/4/1
f 97/5/2 50/6/2 7/7/2 37/8/2
f 96/9/3 35/10/3 6/11/3 31/12/3
f 95/13/4 37/14/4 7/15/4 33/16/4
f 94/17/5 38/18/5 8/19/5 34/20/5
f 93/21/6 28/22/6 4/23/6 46/24/6
f 92/25/7 51/26/7 16/27/7 34/28/7
f 91/29/8 52/30/8 21/31/8 53/32/8
f 90/33/9 40/34/9 10/35/9 54/36/9
f 89/37/10 55/38/10 16/39/10 46/40/10
f 88/41/11 56/42/11 22/43/11 57/44/11
f 87/45/12 50/46/12 20/47/12 58/48/12
f 86/49/13 59/50/13 15/51/13 45/52/13
f 85/53/14 60/54/14 23/55/14 61/56/14
f 84/57/15 49/58/15 19/59/15 62/60/15
f 83/61/16 63/62/16 13/63/16 43/64/16
f 82/65/17 64/66/17 24/67/17 65/68/17
f 81/69/18 47/70/18 17/71/18 66/72/18
f 80/73/19 67/74/19 19/59/19 49/58/19
f 79/75/20 68/76/20 25/77/20 69/78/20
f 78/79/21 38/80/21 20/81/21 70/82/21
f 77/83/22 71/84/22 14/85/22 32/86/22
f 76/87/23 72/88/23 26/89/23 73/90/23
f 75/91/24 42/92/24 12/93/24 74/94/24
f 72/88/25 75/91/25 74/94/25 26/89/25
f 9/95/26 27/96/26 75/91/26 72/88/26
f 27/96/27 2/97/27 42/92/27 75/91/27
f 40/98/28 76/87/28 73/90/28 10/99/28
f 1/100/29 39/101/29 76/87/29 40/98/29
f 39/101/30 9/95/30 72/88/30 76/87/30
f 28/102/31 77/83/31 32/86/31 4/103/31
f 10/99/32 73/90/32 77/83/32 28/102/32
f 73/90/33 26/89/33 71/84/33 77/83/33
f 68/76/34 78/79/34 70/82/34 25/77/34
f 18/104/35 36/105/35 78/79/35 68/76/35
f 36/105/36 8/106/36 38/80/36 78/79/36
f 47/70/37 79/107/37 69/108/37 17/71/37
f 5/109/38 48/110/38 79/111/38 47/112/38
f 48/113/39 18/114/39 68/115/39 79/107/39
f 35/10/40 80/116/40 49/117/40 6/11/40
f 17/118/41 69/78/41 80/73/41 35/119/41
f 69/78/42 25/77/42 67/74/42 80/73/42
f 64/120/43 81/69/43 66/72/43 24/121/43
f 11/122/44 29/123/44 81/69/44 64/120/44
f 29/124/45 5/125/45 47/126/45 81/127/45
f 39/128/46 82/65/46 65/68/46 9/129/46
f 1/100/47 41/130/47 82/131/47 39/101/47
f 41/132/48 11/122/48 64/120/48 82/133/48
f 27/134/49 83/61/49 43/64/49 2/135/49
f 9/129/50 65/68/50 83/61/50 27/134/50
f 65/68/51 24/67/51 63/62/51 83/61/51
f 60/54/52 84/136/52 62/137/52 23/55/52
f 13/63/53 31/12/53 84/136/53 60/54/53
f 31/12/54 6/11/54 49/117/54 84/136/54
f 42/92/55 85/138/55 61/139/55 12/93/55
f 2/135/56 43/64/56 85/53/56 42/140/56
f 43/64/57 13/63/57 60/54/57 85/53/57
f 30/141/58 86/49/58 45/52/58 3/142/58
f 12/93/59 61/139/59 86/143/59 30/2/59
f 61/144/60 23/145/60 59/50/60 86/49/60
f 56/42/61 87/45/61 58/48/61 22/43/61
f 15/51/62 33/16/62 87/45/62 56/42/62
f 33/16/63 7/15/63 50/46/63 87/45/63
f 44/146/64 88/41/64 57/44/64 14/147/64
f 3/142/65 45/52/65 88/41/65 44/146/65
f 45/52/66 15/51/66 56/42/66 88/41/66
f 32/148/67 89/37/67 46/40/67 4/149/67
f 14/147/68 57/44/68 89/37/68 32/148/68
f 57/44/69 22/43/69 55/38/69 89/37/69
f 52/30/70 90/33/70 54/36/70 21/31/70
f 11/122/71 41/132/71 90/33/71 52/30/71
f 41/132/72 1/150/72 40/34/72 90/33/72
f 48/113/73 91/29/73 53/32/73 18/114/73
f 5/151/74 29/123/74 91/29/74 48/113/74
f 29/123/75 11/122/75 52/30/75 91/29/75
f 36/152/76 92/25/76 34/28/76 8/153/76
f 18/114/77 53/32/77 92/25/77 36/152/77
f 53/32/78 21/31/78 51/26/78 92/25/78
f 51/26/79 93/21/79 46/24/79 16/27/79
f 21/31/80 54/36/80 93/21/80 51/26/80
f 54/36/81 10/35/81 28/22/81 93/21/81
f 55/38/82 94/17/82 34/20/82 16/39/82
f 22/43/83 58/48/83 94/17/83 55/38/83
f 58/48/84 20/47/84 38/18/84 94/17/84
f 59/50/85 95/13/85 33/16/85 15/51/85
f 23/145/86 62/154/86 95/13/86 59/50/86
f 62/60/87 19/59/87 37/8/87 95/155/87
f 63/62/88 96/9/88 31/12/88 13/63/88
f 24/67/89 66/156/89 96/9/89 63/62/89
f 66/156/90 17/157/90 35/10/90 96/9/90
f 67/74/91 97/5/91 37/8/91 19/59/91
f 25/77/92 70/82/92 97/5/92 67/74/92
f 70/82/93 20/81/93 50/6/93 97/5/93
f 71/84/94 98/1/94 44/4/94 14/85/94
f 26/89/95 74/94/95 98/1/95 71/84/95
f 74/94/96 12/93/96 30/2/96 98/1/96
