# Blender v2.79 (sub 0) OBJ File: 'asteroid5.blend'
# www.blender.org
mtllib asteroid5.mtl
o asteroid5_Cube
v 0.930384 -0.930384 -0.930384
v 0.930383 -0.930384 4.734457
v -0.930384 -0.930384 4.734457
v -0.930383 -0.930384 -0.930384
v 0.930384 0.930384 -0.930383
v 0.930383 0.930384 4.734457
v -0.930384 0.930384 4.734457
v -0.930384 0.930384 -0.930384
v 1.059601 -1.059601 0.789143
v 0.000000 -1.059601 -1.059601
v 1.059601 0.000000 -1.059601
v -0.000000 -1.059601 4.883909
v 1.059601 0.000000 4.883909
v -1.059601 -1.059601 0.789142
v -1.059601 0.000000 4.883909
v -1.059601 0.000000 -1.059601
v 1.059601 1.059601 0.789143
v 0.000000 1.059601 -1.059601
v -0.000000 1.059601 4.883909
v -1.059601 1.059601 0.789143
v 0.000000 0.000000 -1.412454
v -1.412454 0.000000 0.789142
v -0.000000 0.000000 5.297465
v 1.412454 0.000000 0.789143
v -0.000000 1.412454 0.789143
v 0.000000 -1.412454 0.789143
v 1.022758 -1.022758 3.658073
v -0.562205 -1.022758 -1.022758
v 1.022758 0.562205 -1.022758
v -0.562205 -1.022758 4.847066
v 1.022758 0.562205 4.847067
v -1.022758 -1.022758 -0.501502
v -1.022759 0.562205 4.847066
v -1.022758 0.562205 -1.022758
v 1.022758 1.022758 3.658074
v -0.562205 1.022758 -1.022758
v -0.562205 1.022758 4.847066
v -1.022758 1.022758 -0.501502
v 1.022758 -1.022758 -0.501502
v 0.562205 -1.022758 -1.022758
v 1.022759 -0.562205 -1.022758
v 0.562205 -1.022758 4.847066
v 1.022758 -0.562205 4.847066
v -1.022758 -1.022758 3.658073
v -1.022758 -0.562205 4.847066
v -1.022758 -0.562205 -1.022759
v 1.022758 1.022758 -0.501501
v 0.562205 1.022758 -1.022758
v 0.562205 1.022758 4.847066
v -1.022759 1.022758 3.658073
v -0.595947 0.000000 -1.326521
v 0.595948 0.000000 -1.326521
v 0.000000 0.595948 -1.326521
v 0.000000 -0.595948 -1.326521
v -1.326521 0.000000 -0.535245
v -1.326522 0.000000 3.691816
v -1.326521 -0.595948 0.789142
v -1.326521 0.595948 0.789143
v -0.595948 0.000000 5.211533
v 0.595947 0.000000 5.211533
v -0.000000 -0.595948 5.211533
v -0.000000 0.595948 5.211533
v 1.326521 0.000000 3.691816
v 1.326521 0.000000 -0.535244
v 1.326521 -0.595948 0.789143
v 1.326521 0.595948 0.789143
v -0.000000 1.326521 3.691816
v 0.000000 1.326521 -0.535244
v 0.595948 1.326521 0.789143
v -0.595948 1.326521 0.789143
v -0.595948 -1.326521 0.789143
v 0.595948 -1.326521 0.789143
v 0.000000 -1.326521 -0.535245
v -0.000000 -1.326521 3.691816
v 0.583889 -1.253149 3.679757
v 0.583889 -1.253149 -0.523185
v -0.583888 -1.253149 -0.523186
v -0.583889 1.253149 -0.523185
v 0.583889 1.253149 -0.523185
v 0.583888 1.253149 3.679757
v 1.253149 0.583889 -0.523185
v 1.253149 -0.583889 -0.523185
v 1.253149 -0.583889 3.679757
v 0.583888 0.583889 5.138161
v 0.583888 -0.583889 5.138160
v -0.583889 -0.583889 5.138160
v -1.253149 0.583889 3.679757
v -1.253149 -0.583889 3.679757
v -1.253149 -0.583889 -0.523186
v 0.583889 -0.583889 -1.253149
v 0.583889 0.583889 -1.253149
v -0.583888 0.583889 -1.253149
v -0.583888 -0.583889 -1.253149
v -1.253149 0.583889 -0.523186
v -0.583889 0.583889 5.138160
v 1.253149 0.583889 3.679757
v -0.583889 1.253149 3.679757
v -0.583889 -1.253149 3.679757
vt 0.813665 0.592621
vt 0.815129 0.736556
vt 0.770302 0.722894
vt 0.758824 0.589645
vt 0.701488 0.589775
vt 0.750136 0.584660
vt 0.739832 0.718359
vt 0.697838 0.733816
vt 0.307872 0.150009
vt 0.258834 0.149890
vt 0.272321 0.015472
vt 0.314812 0.003026
vt 0.312477 0.787899
vt 0.254584 0.794363
vt 0.263367 0.752493
vt 0.308994 0.741008
vt 0.189855 0.675444
vt 0.244479 0.671904
vt 0.234112 0.724312
vt 0.189409 0.735708
vt 0.053807 0.941769
vt 0.062393 1.000000
vt 0.020842 0.992906
vt 0.006956 0.946485
vt 0.049821 0.798122
vt 0.048954 0.868629
vt 0.000000 0.876877
vt 0.003118 0.808172
vt 0.186400 0.790168
vt 0.188354 0.860510
vt 0.116957 0.862931
vt 0.116620 0.791263
vt 0.190386 0.933815
vt 0.193900 0.992341
vt 0.127544 1.000000
vt 0.120689 0.937876
vt 0.052019 0.672818
vt 0.120031 0.676214
vt 0.122554 0.739319
vt 0.056692 0.733180
vt 0.057735 0.150010
vt 0.125780 0.150405
vt 0.120791 0.512154
vt 0.051491 0.510131
vt 0.195572 0.152636
vt 0.250136 0.154490
vt 0.250136 0.511735
vt 0.192174 0.512812
vt 0.448317 0.795509
vt 0.382133 0.788547
vt 0.375320 0.739319
vt 0.439790 0.748336
vt 0.446193 0.938406
vt 0.379966 0.934395
vt 0.383058 0.859502
vt 0.450373 0.865355
vt 0.310353 0.930796
vt 0.252539 0.931953
vt 0.250136 0.862074
vt 0.311727 0.857587
vt 0.445708 0.152636
vt 0.375917 0.150405
vt 0.380774 0.000000
vt 0.447529 0.005555
vt 0.439992 0.675444
vt 0.370168 0.676213
vt 0.370927 0.512154
vt 0.442311 0.512812
vt 0.302155 0.672818
vt 0.253176 0.667304
vt 0.250136 0.506969
vt 0.301627 0.510131
vt 0.563801 0.592621
vt 0.633639 0.593128
vt 0.632103 0.739989
vt 0.565265 0.736556
vt 0.556721 0.069340
vt 0.626518 0.066844
vt 0.629890 0.232237
vt 0.558484 0.233187
vt 0.694407 0.066494
vt 0.743129 0.066778
vt 0.750136 0.227593
vt 0.699014 0.230283
vt 0.806584 0.069340
vt 0.808348 0.233187
vt 0.750136 0.232758
vt 0.751817 0.071763
vt 0.944271 0.066494
vt 0.948878 0.230283
vt 0.879754 0.232237
vt 0.876382 0.066844
vt 0.951351 0.589775
vt 0.947702 0.733816
vt 0.881967 0.739989
vt 0.883503 0.593128
vt 1.000000 0.227593
vt 1.000000 0.584660
vt 0.989695 0.718359
vt 0.937813 0.003002
vt 0.871954 0.000000
vt 0.980152 0.013066
vt 0.992992 0.066778
vt 0.805240 0.005742
vt 0.760759 0.017600
vt 0.622090 0.000000
vt 0.687949 0.003002
vt 0.730288 0.013066
vt 0.501953 0.071763
vt 0.500273 0.232758
vt 0.510895 0.017600
vt 0.555376 0.005742
vt 0.508961 0.589645
vt 0.520439 0.722894
vt 0.372690 0.739319
vt 0.306828 0.733179
vt 0.264616 0.720127
vt 0.494615 0.671904
vt 0.500273 0.511735
vt 0.484249 0.724312
vt 0.439546 0.735708
vt 0.500273 0.154490
vt 0.491953 0.019657
vt 0.371466 0.998639
vt 0.305274 0.991311
vt 0.259983 0.980188
vt 0.490481 0.945284
vt 0.496650 0.875885
vt 0.476434 0.992315
vt 0.436070 0.998639
vt 0.492526 0.807694
vt 0.479818 0.764620
vt 0.130637 0.000000
vt 0.197393 0.005555
vt 0.241817 0.019657
vt 0.008697 0.149890
vt 0.000000 0.506969
vt 0.022184 0.015472
vt 0.064675 0.003026
vt 0.003040 0.667304
vt 0.014480 0.720127
vt 0.247854 0.862442
vt 0.246192 0.932552
vt 0.238470 0.980232
vt 0.186917 0.740725
vt 0.120310 0.739319
vt 0.232118 0.751341
vt 0.242354 0.794240
vt 0.055410 0.748383
vt 0.014489 0.764016
vn -0.3886 -0.9090 0.1505
vn -0.3886 0.9090 0.1505
vn 0.9090 0.3886 0.1505
vn -0.4496 0.4496 0.7718
vn -0.8538 0.3902 -0.3447
vn -0.3890 -0.3890 -0.8351
vn -0.4819 0.1042 -0.8700
vn 0.1339 0.1339 -0.9819
vn 0.1042 -0.4819 -0.8700
vn -0.8937 -0.1046 -0.4363
vn -0.9906 -0.1340 0.0275
vn -0.8754 0.4829 0.0209
vn -0.5641 -0.1029 0.8193
vn 0.1339 -0.1339 0.9819
vn 0.1029 0.5641 0.8193
vn 0.9732 -0.1024 0.2061
vn 0.9891 -0.1342 -0.0604
vn 0.8744 0.4829 -0.0461
vn 0.1024 0.9732 0.2061
vn 0.1342 0.9891 -0.0604
vn -0.4829 0.8744 -0.0461
vn -0.4829 -0.8744 -0.0461
vn 0.1342 -0.9891 -0.0604
vn 0.1024 -0.9732 0.2061
vn 0.1340 -0.9906 0.0275
vn 0.4829 -0.8754 0.0209
vn 0.3886 -0.9090 0.1505
vn 0.1046 -0.8937 -0.4363
vn 0.3902 -0.8538 -0.3447
vn 0.4829 -0.8744 -0.0461
vn -0.3902 -0.8538 -0.3447
vn -0.1046 -0.8937 -0.4363
vn -0.1342 -0.9891 -0.0604
vn -0.1342 0.9891 -0.0604
vn -0.1046 0.8937 -0.4363
vn -0.3902 0.8538 -0.3447
vn 0.4829 0.8744 -0.0461
vn 0.3902 0.8538 -0.3447
vn 0.1046 0.8937 -0.4363
vn 0.3886 0.9090 0.1505
vn 0.4829 0.8754 0.0209
vn 0.1340 0.9906 0.0275
vn 0.9891 0.1342 -0.0604
vn 0.8937 0.1046 -0.4363
vn 0.8538 0.3902 -0.3447
vn 0.8744 -0.4829 -0.0461
vn 0.8538 -0.3902 -0.3447
vn 0.8937 -0.1046 -0.4363
vn 0.9090 -0.3886 0.1505
vn 0.8754 -0.4829 0.0209
vn 0.9906 -0.1340 0.0275
vn 0.1339 0.1339 0.9819
vn 0.5641 0.1029 0.8193
vn 0.4496 0.4496 0.7718
vn 0.1029 -0.5641 0.8193
vn 0.4496 -0.4496 0.7718
vn 0.5641 -0.1029 0.8193
vn -0.4496 -0.4496 0.7718
vn -0.1029 -0.5641 0.8193
vn -0.1339 -0.1339 0.9819
vn -0.9906 0.1340 0.0275
vn -0.9732 0.1024 0.2061
vn -0.9090 0.3886 0.1505
vn -0.8754 -0.4829 0.0209
vn -0.9090 -0.3886 0.1505
vn -0.9732 -0.1024 0.2061
vn -0.8538 -0.3902 -0.3447
vn -0.8744 -0.4829 -0.0461
vn -0.9891 -0.1342 -0.0604
vn 0.1339 -0.1339 -0.9819
vn 0.4819 -0.1042 -0.8700
vn 0.3890 -0.3890 -0.8351
vn 0.1042 0.4819 -0.8700
vn 0.3890 0.3890 -0.8351
vn 0.4819 0.1042 -0.8700
vn -0.3890 0.3890 -0.8351
vn -0.1042 0.4819 -0.8700
vn -0.1339 0.1339 -0.9819
vn -0.4819 -0.1042 -0.8700
vn -0.1339 -0.1339 -0.9819
vn -0.1042 -0.4819 -0.8700
vn -0.8937 0.1046 -0.4363
vn -0.9891 0.1342 -0.0604
vn -0.8744 0.4829 -0.0461
vn -0.5641 0.1029 0.8193
vn -0.1339 0.1339 0.9819
vn -0.1029 0.5641 0.8193
vn 0.9732 0.1024 0.2061
vn 0.9906 0.1340 0.0275
vn 0.8754 0.4829 0.0209
vn -0.1024 0.9732 0.2061
vn -0.1340 0.9906 0.0275
vn -0.4829 0.8754 0.0209
vn -0.4829 -0.8754 0.0209
vn -0.1340 -0.9906 0.0275
vn -0.1024 -0.9732 0.2061
usemtl Material
s off
f 98/1/1 30/2/1 3/3/1 44/4/1
f 97/5/2 50/6/2 7/7/2 37/8/2
f 96/9/3 35/10/3 6/11/3 31/12/3
f 95/13/4 37/14/4 7/15/4 33/16/4
f 94/17/5 38/18/5 8/19/5 34/20/5
f 93/21/6 28/22/6 4/23/6 46/24/6
f 92/25/7 51/26/7 16/27/7 34/28/7
f 91/29/8 52/30/8 21/31/8 53/32/8
f 90/33/9 40/34/9 10/35/9 54/36/9
f 89/37/10 55/38/10 16/39/10 46/40/10
f 88/41/11 56/42/11 22/43/11 57/44/11
f 87/45/12 50/46/12 20/47/12 58/48/12
f 86/49/13 59/50/13 15/51/13 45/52/13
f 85/53/14 60/54/14 23/55/14 61/56/14
f 84/57/15 49/58/15 19/59/15 62/60/15
f 83/61/16 63/62/16 13/63/16 43/64/16
f 82/65/17 64/66/17 24/67/17 65/68/17
f 81/69/18 47/70/18 17/71/18 66/72/18
f 80/73/19 67/74/19 19/75/19 49/76/19
f 79/77/20 68/78/20 25/79/20 69/80/20
f 78/81/21 38/82/21 20/83/21 70/84/21
f 77/85/22 71/86/22 14/87/22 32/88/22
f 76/89/23 72/90/23 26/91/23 73/92/23
f 75/93/24 42/94/24 12/95/24 74/96/24
f 72/90/25 75/93/25 74/96/25 26/91/25
f 9/97/26 27/98/26 75/93/26 72/90/26
f 27/98/27 2/99/27 42/94/27 75/93/27
f 40/100/28 76/89/28 73/92/28 10/101/28
f 1/102/29 39/103/29 76/89/29 40/100/29
f 39/103/30 9/97/30 72/90/30 76/89/30
f 28/104/31 77/85/31 32/88/31 4/105/31
f 10/101/32 73/92/32 77/85/32 28/104/32
f 73/92/33 26/91/33 71/86/33 77/85/33
f 68/78/34 78/81/34 70/84/34 25/79/34
f 18/106/35 36/107/35 78/81/35 68/78/35
f 36/107/36 8/108/36 38/82/36 78/81/36
f 47/109/37 79/77/37 69/80/37 17/110/37
f 5/111/38 48/112/38 79/77/38 47/109/38
f 48/112/39 18/106/39 68/78/39 79/77/39
f 35/113/40 80/73/40 49/76/40 6/114/40
f 17/110/41 69/80/41 80/73/41 35/113/41
f 69/80/42 25/79/42 67/74/42 80/73/42
f 64/66/43 81/69/43 66/72/43 24/67/43
f 11/115/44 29/116/44 81/69/44 64/66/44
f 29/116/45 5/117/45 47/70/45 81/69/45
f 39/118/46 82/65/46 65/68/46 9/119/46
f 1/120/47 41/121/47 82/65/47 39/118/47
f 41/121/48 11/115/48 64/66/48 82/65/48
f 27/122/49 83/61/49 43/64/49 2/123/49
f 9/119/50 65/68/50 83/61/50 27/122/50
f 65/68/51 24/67/51 63/62/51 83/61/51
f 60/54/52 84/57/52 62/60/52 23/55/52
f 13/124/53 31/125/53 84/57/53 60/54/53
f 31/125/54 6/126/54 49/58/54 84/57/54
f 42/127/55 85/53/55 61/56/55 12/128/55
f 2/129/56 43/130/56 85/53/56 42/127/56
f 43/130/57 13/124/57 60/54/57 85/53/57
f 30/131/58 86/49/58 45/52/58 3/132/58
f 12/128/59 61/56/59 86/49/59 30/131/59
f 61/56/60 23/55/60 59/50/60 86/49/60
f 56/42/61 87/45/61 58/48/61 22/43/61
f 15/133/62 33/134/62 87/45/62 56/42/62
f 33/134/63 7/135/63 50/46/63 87/45/63
f 44/136/64 88/41/64 57/44/64 14/137/64
f 3/138/65 45/139/65 88/41/65 44/136/65
f 45/139/66 15/133/66 56/42/66 88/41/66
f 32/140/67 89/37/67 46/40/67 4/141/67
f 14/137/68 57/44/68 89/37/68 32/140/68
f 57/44/69 22/43/69 55/38/69 89/37/69
f 52/30/70 90/33/70 54/36/70 21/31/70
f 11/142/71 41/143/71 90/33/71 52/30/71
f 41/143/72 1/144/72 40/34/72 90/33/72
f 48/145/73 91/29/73 53/32/73 18/146/73
f 5/147/74 29/148/74 91/29/74 48/145/74
f 29/148/75 11/142/75 52/30/75 91/29/75
f 36/149/76 92/25/76 34/28/76 8/150/76
f 18/146/77 53/32/77 92/25/77 36/149/77
f 53/32/78 21/31/78 51/26/78 92/25/78
f 51/26/79 93/21/79 46/24/79 16/27/79
f 21/31/80 54/36/80 93/21/80 51/26/80
f 54/36/81 10/35/81 28/22/81 93/21/81
f 55/38/82 94/17/82 34/20/82 16/39/82
f 22/43/83 58/48/83 94/17/83 55/38/83
f 58/48/84 20/47/84 38/18/84 94/17/84
f 59/50/85 95/13/85 33/16/85 15/51/85
f 23/55/86 62/60/86 95/13/86 59/50/86
f 62/60/87 19/59/87 37/14/87 95/13/87
f 63/62/88 96/9/88 31/12/88 13/63/88
f 24/67/89 66/72/89 96/9/89 63/62/89
f 66/72/90 17/71/90 35/10/90 96/9/90
f 67/74/91 97/5/91 37/8/91 19/75/91
f 25/79/92 70/84/92 97/5/92 67/74/92
f 70/84/93 20/83/93 50/6/93 97/5/93
f 71/86/94 98/1/94 44/4/94 14/87/94
f 26/91/95 74/96/95 98/1/95 71/86/95
f 74/96/96 12/95/96 30/2/96 98/1/96
